<svg xmlns="http://www.w3.org/2000/svg" width="201.002" height="201.002" viewBox="0 0 201.002 201.002">
  <g id="postcode-icon" transform="translate(-9864.79 -315.511)">
    <g id="postcode-icon-2" data-name="postcode-icon" transform="translate(9864.79 315.511)">
      <g id="Group_28" data-name="Group 28" transform="translate(0)">
        <g id="Ellipse_3" data-name="Ellipse 3" fill="#fff" stroke="#0f6833" stroke-width="3" stroke-dasharray="5">
          <circle cx="100.501" cy="100.501" r="100.501" stroke="none"/>
          <circle cx="100.501" cy="100.501" r="99.001" fill="none"/>
        </g>
      </g>
      <g id="Group_29" data-name="Group 29" transform="translate(0 15.571)">
        <circle id="Ellipse_4" data-name="Ellipse 4" cx="24.025" cy="24.025" r="24.025" fill="#0f6833"/>
        <path id="Path_8863" data-name="Path 8863" d="M3.841-23.273V0H-.377V-19.173H-.514l-5.445,3.482v-3.864l5.782-3.718Z" transform="translate(24.024 35.525)" fill="#fff"/>
      </g>
    </g>
    <g id="_1583576661537355876" data-name="1583576661537355876" transform="translate(9913.688 369.177)">
      <path id="Path_87" data-name="Path 87" d="M89.519,24.76H9.741L3.4,75.055H94.919Z" transform="translate(2.498 13.412)" fill="#fff"/>
      <path id="Path_88" data-name="Path 88" d="M92.017,26.963l5.4,50.295H5.9l6.339-50.295H92.017m4.674-5.2H7.65l-.574,4.553L.737,76.607,0,82.461H103.208l-.619-5.758-5.4-50.295-.5-4.648Z" transform="translate(0 11.209)" fill="#003a6b"/>
      <path id="Path_89" data-name="Path 89" d="M17.149,65.366a11.078,11.078,0,0,1-1.334-.082,8.245,8.245,0,0,1-1.132-.215,1.734,1.734,0,1,1,.867-3.358,5.627,5.627,0,0,0,.687.13,8.4,8.4,0,0,0,2.107-.026,1.734,1.734,0,1,1,.434,3.441A12.572,12.572,0,0,1,17.149,65.366Zm8.064-2.008a1.735,1.735,0,0,1-.626-3.352c1.027-.4,2.06-.838,3.077-1.316a1.734,1.734,0,0,1,1.474,3.139c-1.089.512-2.2.985-3.3,1.41A1.65,1.65,0,0,1,25.214,63.357Zm-14.476-3A1.736,1.736,0,0,1,9.014,58.8a10.17,10.17,0,0,1-.049-1.027c0-.2.005-.4.016-.6a11.468,11.468,0,0,1,.39-2.438,1.734,1.734,0,1,1,3.347.905,7.966,7.966,0,0,0-.271,1.7c-.007.142-.012.286-.012.43a6.275,6.275,0,0,0,.033.675,1.737,1.737,0,0,1-1.55,1.9C10.855,60.35,10.8,60.354,10.737,60.354Zm23.723-1.733a1.734,1.734,0,0,1-.947-3.189c.928-.6,1.849-1.249,2.74-1.92a1.735,1.735,0,0,1,2.09,2.77c-.957.72-1.946,1.413-2.94,2.06A1.732,1.732,0,0,1,34.461,58.621Zm8.254-6.33a1.734,1.734,0,0,1-1.023-3.136c.362-.262.732-.52,1.112-.765A21.968,21.968,0,0,1,44.884,47.2a1.735,1.735,0,1,1,1.559,3.1,18.724,18.724,0,0,0-1.752,1q-.489.32-.957.663A1.732,1.732,0,0,1,42.714,52.291Zm-27.672-.82a1.733,1.733,0,0,1-.829-3.257,7.763,7.763,0,0,1,2.851-.9,6.317,6.317,0,0,1,1.545.014,1.734,1.734,0,0,1-.454,3.437,2.813,2.813,0,0,0-.7,0,4.278,4.278,0,0,0-1.583.5A1.733,1.733,0,0,1,15.042,51.471Zm37.173-3.212a1.734,1.734,0,0,1-.361-3.43c1.115-.239,2.315-.437,3.569-.593a1.712,1.712,0,0,1,1.934,1.507,1.732,1.732,0,0,1-1.507,1.934c-1.153.144-2.255.326-3.271.543A1.65,1.65,0,0,1,52.215,48.259Zm10.336-1.07a1.734,1.734,0,0,1-.069-3.467l3.456-.142a1.708,1.708,0,0,1,1.812,1.655A1.735,1.735,0,0,1,66.1,47.045l-3.472.142C62.6,47.189,62.576,47.189,62.551,47.189Zm10.369-.768a1.735,1.735,0,0,1-.35-3.434,6.12,6.12,0,0,0,2.336-.911,1.8,1.8,0,0,1,2.494.258,1.674,1.674,0,0,1-.243,2.39c-.1.073-.191.144-.293.212a9.47,9.47,0,0,1-3.593,1.448A1.729,1.729,0,0,1,72.921,46.42Zm7.057-6.989a1.766,1.766,0,0,1-.513-.078,1.734,1.734,0,0,1-1.143-2.17,3.836,3.836,0,0,0,.168-.878l.007-.2a3.458,3.458,0,0,0-.225-1.2A1.734,1.734,0,0,1,81.523,33.7a6.911,6.911,0,0,1,.442,2.411c0,.146-.005.29-.014.434a7.275,7.275,0,0,1-.317,1.672A1.733,1.733,0,0,1,79.978,39.431ZM71.2,32.308a1.734,1.734,0,0,1-.47-3.4,10.264,10.264,0,0,1,4.138-.312,1.734,1.734,0,0,1-.465,3.437,6.852,6.852,0,0,0-2.732.21A1.641,1.641,0,0,1,71.2,32.308Z" transform="translate(6.583 16.164)" fill="#003a6b"/>
      <g id="Group_107" data-name="Group 107" transform="translate(33.05 0)">
        <path id="Path_90" data-name="Path 90" d="M56.842,18.673C55.934,11.737,52.309,2.75,38.074,2.75s-17.86,8.987-18.769,15.923a34.011,34.011,0,0,0,.572,11.415c4.351,20.626,15.106,32.99,17.65,35.687a.749.749,0,0,0,1.093,0c2.544-2.7,13.3-15.061,17.65-35.687A33.921,33.921,0,0,0,56.842,18.673ZM38.074,32.1A11.005,11.005,0,1,1,49.08,21.092,11.005,11.005,0,0,1,38.074,32.1Z" transform="translate(-19.057 -2.75)" fill="#44ae6f"/>
        <g id="Group_43" data-name="Group 43" transform="translate(6.279 5.603)">
          <path id="Path_91" data-name="Path 91" d="M35.417,5.981a12.739,12.739,0,1,0,12.74,12.738A12.753,12.753,0,0,0,35.417,5.981Zm0,22.01a9.271,9.271,0,1,1,9.272-9.272A9.283,9.283,0,0,1,35.417,27.991Z" transform="translate(-22.677 -5.981)" fill="#003a6b"/>
        </g>
      </g>
    </g>
  </g>
</svg>
