<svg xmlns="http://www.w3.org/2000/svg" xmlns:xlink="http://www.w3.org/1999/xlink" width="201.002" height="201.002" viewBox="0 0 201.002 201.002">
  <defs>
    <clipPath id="clip-path">
      <rect id="Rectangle_17" data-name="Rectangle 17" width="132.446" height="89.003" fill="none"/>
    </clipPath>
  </defs>
  <g id="book-icon" transform="translate(-9864.79 -315.511)">
    <g id="postcode-icon" transform="translate(9864.79 315.511)">
      <g id="Group_28" data-name="Group 28" transform="translate(0)">
        <g id="Ellipse_3" data-name="Ellipse 3" fill="#fff" stroke="#0f6833" stroke-width="3" stroke-dasharray="5">
          <circle cx="100.501" cy="100.501" r="100.501" stroke="none"/>
          <circle cx="100.501" cy="100.501" r="99.001" fill="none"/>
        </g>
      </g>
      <g id="Group_29" data-name="Group 29" transform="translate(0 15.571)">
        <circle id="Ellipse_4" data-name="Ellipse 4" cx="24.025" cy="24.025" r="24.025" fill="#0f6833"/>
        <path id="Path_8864" data-name="Path 8864" d="M-7.882,0V-3.045L.2-10.964q1.157-1.173,1.93-2.083a7.766,7.766,0,0,0,1.163-1.761,4.317,4.317,0,0,0,.39-1.819,3.45,3.45,0,0,0-.5-1.889A3.353,3.353,0,0,0,1.8-19.741a4.42,4.42,0,0,0-1.982-.432A4.141,4.141,0,0,0-2.2-19.7a3.268,3.268,0,0,0-1.332,1.337A4.251,4.251,0,0,0-4-16.309H-8.009A7.19,7.19,0,0,1-7-20.154a6.8,6.8,0,0,1,2.79-2.536,8.944,8.944,0,0,1,4.085-.9,9.166,9.166,0,0,1,4.114.875,6.771,6.771,0,0,1,2.755,2.4,6.25,6.25,0,0,1,.986,3.47,6.937,6.937,0,0,1-.5,2.569,10.984,10.984,0,0,1-1.755,2.8A44.115,44.115,0,0,1,1.955-7.764L-2.054-3.682v.164H8.073V0Z" transform="translate(24.024 35.525)" fill="#fff"/>
      </g>
    </g>
    <g id="Group_207" data-name="Group 207" transform="translate(9899.068 371.51)">
      <g id="Group_41" data-name="Group 41" clip-path="url(#clip-path)">
        <path id="Path_76" data-name="Path 76" d="M183.19,55.363h.012a18.042,18.042,0,0,1,3.41,1.03,17.584,17.584,0,0,1,3.15,1.669h26.577V53.8H176.318a45.78,45.78,0,0,0,6.859,1.563Z" transform="translate(-93.456 -28.515)" fill="#fff"/>
        <path id="Path_77" data-name="Path 77" d="M190.932,110.455l-.013,0,1.539,14.322H198.7l3.35-8.852v-6.036H190.867Z" transform="translate(-101.167 -58.247)" fill="#f9aa77"/>
        <path id="Path_78" data-name="Path 78" d="M213.043,73.662l.006.063v6.836a1.151,1.151,0,0,1,.565-.154h3.747a1.157,1.157,0,0,1,1.157,1.157v8.3a1.157,1.157,0,1,1-2.315,0V82.723h-1.432v9.922l.174,0a1.157,1.157,0,0,1,1.065.643l4.555,9.186h13.888V67.8h-23.96c.074.09.157.172.232.265a10.686,10.686,0,0,1,2.317,5.594m16.272-2.527a1.158,1.158,0,0,1,2.315,0V96.208a1.158,1.158,0,0,1-2.315,0Z" transform="translate(-111.571 -35.938)" fill="#f9aa77"/>
        <line id="Line_2" data-name="Line 2" transform="translate(89.36 29.133)" fill="none" stroke="#223f43" stroke-linecap="round" stroke-linejoin="round" stroke-width="0"/>
        <path id="Path_79" data-name="Path 79" d="M115.455,53.408c-.64.3-1.342.606-2.1.915.906.274,1.86.534,2.857.768-.022-.032-.046-.064-.067-.1a6.153,6.153,0,0,1-.689-1.584" transform="translate(-60.082 -28.308)" fill="#77c3c7"/>
        <path id="Path_80" data-name="Path 80" d="M165.359,61.944a11.21,11.21,0,0,0-3.252-2.712,16.481,16.481,0,0,0-4.782-1.79,48.779,48.779,0,0,1-11.052-3.012c-.86-.344-1.643-.692-2.357-1.021a6.174,6.174,0,0,1-.688,1.584A8.084,8.084,0,0,1,140.9,57.4a12.215,12.215,0,0,1-5.328,1.977,12.347,12.347,0,0,1,1.707,1.718,10.643,10.643,0,0,1,2.316,5.592.958.958,0,0,1,.008.127V79.454a1.165,1.165,0,0,1-1.16,1.161H128.225l1.9,17.684H157.3l-2.837-26.355,1.153-.125h-1.193l-.331-2.992,2.3-.26.354,3.122V71.7l.02,0,.418,3.888.235,2.053h9.708V66.24a8.357,8.357,0,0,0-1.769-4.3" transform="translate(-67.965 -28.309)" fill="#77c3c7"/>
        <path id="Path_81" data-name="Path 81" d="M135.381,52.734a6.649,6.649,0,0,0,2.888-2.409,4.149,4.149,0,0,0,.4-.893c-.2-.157-.449-.352-.734-.574-.544-.427-1.22-.957-1.947-1.526a28.739,28.739,0,0,0-5.346-.461,32.187,32.187,0,0,0-3.91.229c-.64.08-1.242.182-1.784.3L122.6,49.382a4.042,4.042,0,0,0,.422.943,5.869,5.869,0,0,0,1.675,1.714c.211.147.439.284.676.416a19.1,19.1,0,0,1,2.919.927c.148.061.3.13.458.2a11.981,11.981,0,0,0,1.894.152,11.246,11.246,0,0,0,4.734-1" transform="translate(-64.985 -24.843)" fill="#fff"/>
        <path id="Path_82" data-name="Path 82" d="M60.293,68.2a1.158,1.158,0,0,1,1.275,1.028l1.056,9.817h9.3v-11.4a8.329,8.329,0,0,0-1.767-4.293,11.235,11.235,0,0,0-3.254-2.713,16.436,16.436,0,0,0-4.781-1.789h0a48.96,48.96,0,0,1-11.052-3.011c-.861-.347-1.645-.691-2.356-1.021a6.216,6.216,0,0,1-.689,1.584A8.114,8.114,0,0,1,45.7,58.811a12.851,12.851,0,0,1-7.269,2.108,13.544,13.544,0,0,1-5.717-1.22,8.892,8.892,0,0,1-3.882-3.3,6.266,6.266,0,0,1-.69-1.584c-.711.33-1.5.674-2.354,1.021a48.988,48.988,0,0,1-11.052,3.011h-.007l-.036.008c-.032.006-.086.016-.157.031-.141.03-.352.079-.617.147a17.767,17.767,0,0,0-2.108.706,12.558,12.558,0,0,0-5.068,3.557A8.332,8.332,0,0,0,4.93,67.642V78.435h9.479l.879-9.2a1.155,1.155,0,0,1,2.3.11c0,.038,0,.074,0,.11l-3.7,38.676a.777.777,0,0,0,.142.159,4.636,4.636,0,0,0,1.2.706,25.486,25.486,0,0,0,5.3,1.464,103.944,103.944,0,0,0,18.124,1.4c4.3,0,8.362-.2,11.915-.549a59.663,59.663,0,0,0,8.867-1.439,13.857,13.857,0,0,0,3.345-1.232,2.047,2.047,0,0,0,.636-.507l-4.16-38.666c0-.042,0-.083,0-.125h-.1c.031-.032.062-.065.1-.1A1.157,1.157,0,0,1,60.293,68.2" transform="translate(-2.613 -29.054)" fill="#8ea4ad"/>
        <path id="Path_83" data-name="Path 83" d="M73.139,174.458a27.387,27.387,0,0,1-5.813,1.621,105.784,105.784,0,0,1-18.549,1.442c-4.164,0-8.1-.183-11.608-.507a67.342,67.342,0,0,1-9.026-1.374,20.447,20.447,0,0,1-4.031-1.322l-.1,1.034a.825.825,0,0,0,.142.158,4.616,4.616,0,0,0,1.2.708,25.6,25.6,0,0,0,5.3,1.462,103.932,103.932,0,0,0,18.123,1.4c4.3,0,8.362-.2,11.915-.546A60.368,60.368,0,0,0,69.56,177.1a14.047,14.047,0,0,0,3.345-1.233,2.09,2.09,0,0,0,.636-.506l-.112-1.038c-.1.048-.189.093-.289.138" transform="translate(-12.727 -92.396)" fill="#8ea4ad"/>
        <path id="Path_84" data-name="Path 84" d="M61.19,53.442a10.544,10.544,0,0,0,5.947,1.694,11.2,11.2,0,0,0,4.734-1,6.61,6.61,0,0,0,2.888-2.409,3.947,3.947,0,0,0,.4-.893c-.2-.157-.449-.349-.733-.574-.543-.423-1.218-.954-1.948-1.526a28.773,28.773,0,0,0-5.345-.459,32.179,32.179,0,0,0-3.91.229c-.64.08-1.242.183-1.783.3l-2.351,1.983a4,4,0,0,0,.422.94,5.81,5.81,0,0,0,1.675,1.713" transform="translate(-31.322 -25.588)" fill="#fff"/>
        <path id="Path_85" data-name="Path 85" d="M251.7,99.818a1.157,1.157,0,0,0,1.157-1.157V73.587a1.158,1.158,0,0,0-2.315,0V98.66a1.158,1.158,0,0,0,1.158,1.157" transform="translate(-132.798 -38.391)" fill="#fff"/>
        <path id="Path_86" data-name="Path 86" d="M109.174,2.566A5.487,5.487,0,0,0,107.239.818a6.569,6.569,0,0,0-2.362-.773A6.125,6.125,0,0,0,104.136,0a5.97,5.97,0,0,0-5.15,2.958c-.048.08-.086.164-.128.244H72.26a4.226,4.226,0,0,0-.343-.636A5.463,5.463,0,0,0,69.98.818,6.554,6.554,0,0,0,67.619.045,6.123,6.123,0,0,0,66.879,0a5.967,5.967,0,0,0-5.15,2.958c-.046.08-.085.164-.128.244H42.052a5.51,5.51,0,0,0-1.918-1.726A6.573,6.573,0,0,0,37.772.7a6.089,6.089,0,0,0-.738-.045A5.962,5.962,0,0,0,32.154,3.2H5.139V5.518H31.062c-.078.254-.148.511-.207.77a12.594,12.594,0,0,0-.305,2.754,1.158,1.158,0,0,0,2.317,0A10.144,10.144,0,0,1,33.114,6.8a7.8,7.8,0,0,1,.409-1.281h6.956c0,.06.014.125.014.181a2.315,2.315,0,0,1-.138.781,4.066,4.066,0,0,1-.7,1.182,12.878,12.878,0,0,1-1.148,1.21c-.663.636-1.347,1.282-1.979,2.02a10.017,10.017,0,0,0-1.637,2.559c-.021.053-.1.219-.192.426-.141.312-.324.733-.479,1.188a7.18,7.18,0,0,0-.2.711,3.685,3.685,0,0,0-.1.784,2.343,2.343,0,0,0,.035.4L29.047,21.1a8.147,8.147,0,0,0-2.411.978,3.276,3.276,0,0,0-.905.848,2.333,2.333,0,0,0-.145.24c-.913.453-2.013.96-3.279,1.471a46.639,46.639,0,0,1-10.551,2.873l-.023,0A18.693,18.693,0,0,0,6.318,29.5a13.608,13.608,0,0,0-4,3.29A10.673,10.673,0,0,0,.007,38.381c0,.048-.007.08-.007.128v12.03A1.158,1.158,0,0,0,1.158,51.7H11.575L8.966,79a.825.825,0,0,0-.007.113,2.2,2.2,0,0,0,.267,1.032l-.261,2.734a.771.771,0,0,0-.007.109,2.208,2.208,0,0,0,.274,1.048,2.987,2.987,0,0,0,.584.741,6.026,6.026,0,0,0,1.547,1.008,20.309,20.309,0,0,0,4.051,1.334,66.749,66.749,0,0,0,9.026,1.372c3.506.327,7.444.508,11.608.508A106.259,106.259,0,0,0,54.6,87.562a27.66,27.66,0,0,0,5.813-1.622,6.811,6.811,0,0,0,1.823-1.115,3.044,3.044,0,0,0,.629-.785,2.2,2.2,0,0,0,.273-1.048,1,1,0,0,0-.006-.124l-.288-2.675c.006-.012.016-.019.021-.029a2.2,2.2,0,0,0,.273-1.048.981.981,0,0,0-.006-.125l-.72-6.685h29.5l-.375-3.46h6.8a1.158,1.158,0,0,0,1.082-.748l3.113-8.224a1.133,1.133,0,0,0,.414-.329l4.3,8.658a1.159,1.159,0,0,0,1.037.643H124.04A1.158,1.158,0,0,0,125.2,67.69V24.122a1.154,1.154,0,0,0-1.158-1.157H112.626l-4.554-3.57-3.357-2.629c-.424-.328-.775-.609-1.043-.813a1.156,1.156,0,0,0-.145-.221,1.014,1.014,0,0,0-.14-.138c.008-.038.015-.074.027-.117a8.419,8.419,0,0,1,.365-1.005c.07-.164.137-.314.195-.438s.107-.23.147-.324a7.725,7.725,0,0,1,1.27-1.971c.527-.616,1.153-1.212,1.821-1.851a12.448,12.448,0,0,0,1.766-1.994,5.941,5.941,0,0,0,.665-1.3,4.641,4.641,0,0,0,.24-1.075h22.564V3.2H109.519a4.111,4.111,0,0,0-.344-.636m-5.038-.251a4.082,4.082,0,0,1,.459.027,4.226,4.226,0,0,1,1.966.791c.029.022.057.045.087.07h-4.879a3.608,3.608,0,0,1,2.367-.888m-37.257,0a4.075,4.075,0,0,1,.458.027,4.231,4.231,0,0,1,1.968.791c.029.022.056.045.084.07H64.512a3.607,3.607,0,0,1,2.367-.888m-31.1.888a3.7,3.7,0,0,1,1.253-.229,3.523,3.523,0,0,1,.457.03,3.923,3.923,0,0,1,.823.2Zm.531,12.935a8.365,8.365,0,0,1,.365-1.007c.07-.163.137-.312.195-.44s.106-.229.146-.324A7.681,7.681,0,0,1,38.287,12.4c.526-.616,1.152-1.214,1.821-1.853a12.552,12.552,0,0,0,1.766-1.99,5.825,5.825,0,0,0,.665-1.3,4.663,4.663,0,0,0,.27-1.554c0-.06-.006-.122-.008-.181h17.93c-.009.037-.02.074-.029.109A12.606,12.606,0,0,0,60.4,8.38a1.158,1.158,0,0,0,2.316,0,10.271,10.271,0,0,1,.247-2.239c.049-.212.106-.419.168-.623h7.154a2.515,2.515,0,0,1-.08.3A4.1,4.1,0,0,1,69.5,7a12.928,12.928,0,0,1-1.147,1.208c-.665.638-1.346,1.284-1.979,2.02a10.082,10.082,0,0,0-1.637,2.559c-.023.052-.1.219-.194.426-.141.312-.323.736-.477,1.191a7.065,7.065,0,0,0-.2.707,3.687,3.687,0,0,0-.094.784,2.324,2.324,0,0,0,.034.4l-4.906,4.136a8.257,8.257,0,0,0-2.411.978,3.3,3.3,0,0,0-.905.85,2.368,2.368,0,0,0-.145.24c-.913.454-2.013.961-3.279,1.47-.72.289-1.493.579-2.314.86-.171-.067-.349-.134-.515-.2-1.267-.511-2.367-1.018-3.281-1.471a2.409,2.409,0,0,0-.143-.24,3.266,3.266,0,0,0-.78-.764,6.725,6.725,0,0,0-1.78-.843c-.365-.12-.759-.222-1.167-.317l-1.205-.946-3.358-2.629c-.422-.329-.777-.607-1.043-.813a1.174,1.174,0,0,0-.144-.222,1.445,1.445,0,0,0-.141-.138c.008-.037.017-.074.028-.115m31.214,3.622c-.615-.029-1.238-.047-1.863-.047-.812,0-1.621.026-2.413.079l2.079-1.751c.549.429,1.325,1.035,2.2,1.718m6.164,4.829a4.172,4.172,0,0,1-.4.893A6.649,6.649,0,0,1,70.4,27.891a11.248,11.248,0,0,1-4.735,1,11.99,11.99,0,0,1-1.894-.152c-.153-.067-.309-.137-.457-.2a19.1,19.1,0,0,0-2.919-.927c-.237-.132-.466-.27-.676-.416a5.872,5.872,0,0,1-1.674-1.714,4.023,4.023,0,0,1-.422-.943l2.349-1.981c.543-.119,1.145-.222,1.785-.3a32.172,32.172,0,0,1,3.91-.229,28.731,28.731,0,0,1,5.346.462c.728.569,1.4,1.1,1.948,1.526.284.222.532.417.734.574M55.373,25.1a6.152,6.152,0,0,0,.688,1.584c.021.035.045.067.067.1-1-.234-1.951-.494-2.857-.768.76-.309,1.463-.618,2.1-.915M35.481,18.7c.55.429,1.327,1.035,2.2,1.719-.615-.032-1.239-.05-1.863-.05-.812,0-1.621.028-2.412.083Zm-5.359,4.515c.542-.117,1.144-.22,1.783-.3a32.186,32.186,0,0,1,3.91-.229,28.78,28.78,0,0,1,5.345.459c.729.572,1.4,1.1,1.948,1.526.285.225.532.417.734.574a3.937,3.937,0,0,1-.4.893,6.608,6.608,0,0,1-2.888,2.409,11.194,11.194,0,0,1-4.734,1,10.542,10.542,0,0,1-5.948-1.693,5.818,5.818,0,0,1-1.675-1.714,4,4,0,0,1-.421-.94ZM14.981,40.4c0-.036,0-.072,0-.11a1.155,1.155,0,0,0-2.3-.11l-.879,9.2H2.317V38.589a8.334,8.334,0,0,1,1.811-4.348A12.564,12.564,0,0,1,9.2,30.684a17.879,17.879,0,0,1,2.108-.706c.265-.067.475-.117.617-.147l.157-.031.036-.007.007,0v0a48.989,48.989,0,0,0,11.052-3.011c.86-.347,1.644-.691,2.354-1.021a6.281,6.281,0,0,0,.69,1.584,8.894,8.894,0,0,0,3.882,3.3,13.537,13.537,0,0,0,5.717,1.22,12.854,12.854,0,0,0,7.269-2.107,8.113,8.113,0,0,0,2.331-2.412,6.23,6.23,0,0,0,.689-1.584c.712.329,1.5.673,2.356,1.021a48.968,48.968,0,0,0,11.052,3.011v0a16.411,16.411,0,0,1,4.781,1.789A11.237,11.237,0,0,1,67.549,34.3a8.323,8.323,0,0,1,1.767,4.293v11.4h-9.3l-1.056-9.818a1.157,1.157,0,0,0-2.3.025c-.034.032-.065.065-.095.1h.1c0,.042,0,.082,0,.125l4.16,38.666a2.049,2.049,0,0,1-.636.507,13.873,13.873,0,0,1-3.345,1.232,59.6,59.6,0,0,1-8.867,1.439c-3.553.35-7.61.549-11.915.549a103.944,103.944,0,0,1-18.124-1.4,25.49,25.49,0,0,1-5.3-1.464,4.65,4.65,0,0,1-1.2-.706.791.791,0,0,1-.142-.16Zm45.2,43.066A14.071,14.071,0,0,1,56.832,84.7a60.352,60.352,0,0,1-8.867,1.439c-3.553.349-7.61.546-11.915.546a103.944,103.944,0,0,1-18.124-1.4,25.627,25.627,0,0,1-5.3-1.462,4.643,4.643,0,0,1-1.2-.708.859.859,0,0,1-.142-.158l.1-1.034a20.425,20.425,0,0,0,4.031,1.322,67.247,67.247,0,0,0,9.026,1.374c3.506.324,7.444.507,11.608.507A105.792,105.792,0,0,0,54.6,83.683a27.383,27.383,0,0,0,5.813-1.621c.1-.045.193-.09.289-.138l.112,1.038a2.1,2.1,0,0,1-.636.506M62.164,69.99,60.26,52.3H70.474a1.164,1.164,0,0,0,1.16-1.16V38.509a.973.973,0,0,0-.008-.128,10.64,10.64,0,0,0-2.316-5.592A12.3,12.3,0,0,0,67.6,31.072,12.209,12.209,0,0,0,72.93,29.1a8.089,8.089,0,0,0,2.331-2.411A6.184,6.184,0,0,0,75.95,25.1c.714.329,1.5.676,2.357,1.02A48.778,48.778,0,0,0,89.36,29.133a16.49,16.49,0,0,1,4.782,1.791,11.2,11.2,0,0,1,3.252,2.712,8.353,8.353,0,0,1,1.769,4.3v11.4H89.455l-.235-2.052L88.8,43.386l-.02,0V43.38l-.354-3.123-2.3.26.331,2.992h1.193l-1.153.125L89.335,69.99Zm35.37-3.457H91.291L89.752,52.21l.013,0-.065-.563h11.185V57.68Zm11.462,0-4.555-9.186a1.158,1.158,0,0,0-1.065-.643l-.175,0V46.785h1.432v7.144a1.158,1.158,0,1,0,2.315,0v-8.3a1.158,1.158,0,0,0-1.158-1.158h-3.746a1.154,1.154,0,0,0-.566.155V37.786l-.005-.063a10.686,10.686,0,0,0-2.317-5.594c-.075-.093-.158-.174-.232-.265h23.959V66.532Zm13.887-41.25v4.264H96.307a17.581,17.581,0,0,0-3.151-1.668,18.069,18.069,0,0,0-3.41-1.03h-.012l-.013,0a45.8,45.8,0,0,1-6.86-1.563ZM107.247,21.69l1.628,1.275H96.743l5.842-4.924c1.043.813,2.9,2.272,4.662,3.649m.212-15.869A4.094,4.094,0,0,1,106.76,7a13.382,13.382,0,0,1-1.148,1.208c-.666.638-1.349,1.284-1.981,2.02A10.026,10.026,0,0,0,102,12.791c-.025.052-.1.219-.195.426-.14.315-.324.736-.479,1.191a6.987,6.987,0,0,0-.2.71,3.492,3.492,0,0,0-.1.781,2.587,2.587,0,0,0,.035.4l-7.907,6.665h-11.9a1.159,1.159,0,0,0-1.16,1.157v.207c-.312-.119-.619-.239-.915-.356-1.265-.508-2.368-1.015-3.281-1.47a2.062,2.062,0,0,0-.144-.24,3.145,3.145,0,0,0-.778-.763,6.7,6.7,0,0,0-1.781-.845c-.364-.12-.759-.222-1.167-.317L70.815,19.4l-3.356-2.629c-.423-.328-.778-.609-1.043-.813a1.13,1.13,0,0,0-.145-.221.955.955,0,0,0-.142-.138c.009-.038.017-.074.03-.117a8.025,8.025,0,0,1,.364-1.005c.068-.164.136-.314.195-.438s.1-.23.146-.324a7.725,7.725,0,0,1,1.27-1.971c.527-.616,1.154-1.212,1.822-1.853a12.4,12.4,0,0,0,1.766-1.991,5.776,5.776,0,0,0,.664-1.3,4.6,4.6,0,0,0,.242-1.075H97.988c-.008.037-.02.074-.028.109a12.632,12.632,0,0,0-.3,2.753,1.157,1.157,0,1,0,2.315,0,10.341,10.341,0,0,1,.247-2.239c.047-.212.107-.419.167-.623h7.154a2.353,2.353,0,0,1-.08.3" transform="translate(0 0)" fill="#223f43"/>
      </g>
    </g>
  </g>
</svg>
