<svg xmlns="http://www.w3.org/2000/svg" width="201.002" height="201.002" viewBox="0 0 201.002 201.002">
  <g id="deliver-icon" transform="translate(-9864.79 -315.511)">
    <g id="postcode-icon" transform="translate(9864.79 315.511)">
      <g id="Group_28" data-name="Group 28" transform="translate(0)">
        <g id="Ellipse_3" data-name="Ellipse 3" fill="#fff" stroke="#0f6833" stroke-width="3" stroke-dasharray="5">
          <circle cx="100.501" cy="100.501" r="100.501" stroke="none"/>
          <circle cx="100.501" cy="100.501" r="99.001" fill="none"/>
        </g>
      </g>
      <g id="Group_29" data-name="Group 29" transform="translate(0 15.571)">
        <circle id="Ellipse_4" data-name="Ellipse 4" cx="24.025" cy="24.025" r="24.025" fill="#0f6833"/>
        <path id="Path_8865" data-name="Path 8865" d="M-.009.318A10.666,10.666,0,0,1-4.365-.525a7.325,7.325,0,0,1-3.009-2.34A6,6,0,0,1-8.536-6.327h4.264a2.807,2.807,0,0,0,.63,1.642A3.718,3.718,0,0,0-2.13-3.6a5.551,5.551,0,0,0,2.111.384A5.291,5.291,0,0,0,2.2-3.657,3.619,3.619,0,0,0,3.7-4.877a3.051,3.051,0,0,0,.541-1.8,3.174,3.174,0,0,0-.552-1.86A3.666,3.666,0,0,0,2.086-9.807a6.3,6.3,0,0,0-2.523-.457H-2.5v-3.245H-.436a5.045,5.045,0,0,0,2.128-.423,3.423,3.423,0,0,0,1.439-1.186A3.066,3.066,0,0,0,3.645-16.9,3.187,3.187,0,0,0,3.2-18.616a3.07,3.07,0,0,0-1.263-1.145,4.158,4.158,0,0,0-1.9-.411,5.007,5.007,0,0,0-1.976.385A3.6,3.6,0,0,0-3.4-18.69,2.853,2.853,0,0,0-4-17H-8.055a5.9,5.9,0,0,1,1.132-3.435,7.3,7.3,0,0,1,2.906-2.319,9.658,9.658,0,0,1,4.081-.836,8.85,8.85,0,0,1,4.048.872,6.685,6.685,0,0,1,2.666,2.335,5.817,5.817,0,0,1,.941,3.239,4.8,4.8,0,0,1-1.151,3.293,5.456,5.456,0,0,1-3.049,1.743v.182a5.934,5.934,0,0,1,3.761,1.81,5.25,5.25,0,0,1,1.3,3.653A5.786,5.786,0,0,1,7.476-2.972,7.46,7.46,0,0,1,4.427-.559,10.654,10.654,0,0,1-.009.318Z" transform="translate(24.024 35.525)" fill="#fff"/>
      </g>
    </g>
    <g id="_17786330701642746434" data-name="17786330701642746434" transform="translate(9899.25 279.424)">
      <path id="Path_92" data-name="Path 92" d="M146.679,189.711l-10.573-23.259A11.028,11.028,0,0,0,126.088,160h-102a2.752,2.752,0,0,0-2.752,2.752v30.269h4.128a2.752,2.752,0,1,1,0,5.5H21.333v8.255a8.264,8.264,0,0,0,8.255,8.255H139.657a8.264,8.264,0,0,0,8.255-8.255V195.4A13.662,13.662,0,0,0,146.679,189.711Z" transform="translate(-15.83 -47.49)" fill="#00cf66"/>
      <path id="Path_93" data-name="Path 93" d="M21.333,330.667v2.752a8.264,8.264,0,0,0,8.255,8.255H139.657a8.264,8.264,0,0,0,8.255-8.255v-2.752Z" transform="translate(-15.83 -174.129)" fill="#003a6b"/>
      <path id="Path_94" data-name="Path 94" d="M482.752,293.5h5.5v-3.119A13.732,13.732,0,0,0,488.03,288h-5.279A2.752,2.752,0,0,0,480,290.752h0a2.752,2.752,0,0,0,2.752,2.752Z" transform="translate(-356.173 -142.469)" fill="#fac100"/>
      <path id="Path_95" data-name="Path 95" d="M388.551,202.667H376.085a2.752,2.752,0,0,0-2.752,2.752v11.007a2.752,2.752,0,0,0,2.752,2.752h19.241a2.752,2.752,0,0,0,2.505-3.891l-4.27-9.394A5.5,5.5,0,0,0,388.551,202.667Z" transform="translate(-277.023 -79.15)" fill="#eaeff0"/>
      <path id="Path_96" data-name="Path 96" d="M397.323,241.872a2.7,2.7,0,0,1-2,.88H376.085A2.752,2.752,0,0,1,373.333,240v4.128a2.752,2.752,0,0,0,2.752,2.752h19.241a2.752,2.752,0,0,0,2.505-3.891Z" transform="translate(-277.023 -106.852)" fill="#d9e1e2"/>
      <path id="Path_97" data-name="Path 97" d="M82.552,96H13.759A8.264,8.264,0,0,0,5.5,104.255v35.772H2.752a2.752,2.752,0,1,0,0,5.5H9.631a2.752,2.752,0,1,1,0,5.5H2.752a2.752,2.752,0,1,0,0,5.5h79.8a8.264,8.264,0,0,0,8.255-8.255V104.255A8.264,8.264,0,0,0,82.552,96Z" transform="translate(0 0)" fill="#d9e1e2"/>
      <path id="Path_98" data-name="Path 98" d="M12.383,0A12.383,12.383,0,1,1,0,12.383,12.383,12.383,0,0,1,12.383,0Z" transform="translate(17.886 152.41)" fill="#003a6b"/>
      <circle id="Ellipse_6" data-name="Ellipse 6" cx="5.503" cy="5.503" r="5.503" transform="translate(24.765 159.29)" fill="#d9e1e2"/>
      <circle id="Ellipse_7" data-name="Ellipse 7" cx="12.383" cy="12.383" r="12.383" transform="translate(89.431 152.41)" fill="#003a6b"/>
      <circle id="Ellipse_8" data-name="Ellipse 8" cx="5.503" cy="5.503" r="5.503" transform="translate(96.31 159.29)" fill="#d9e1e2"/>
    </g>
  </g>
</svg>
